<svg width="1200" height="720" viewBox="0 0 1200 720" fill="none" xmlns="http://www.w3.org/2000/svg">
  <defs>
    <linearGradient id="bg" x1="0" y1="0" x2="1200" y2="720" gradientUnits="userSpaceOnUse">
      <stop stop-color="#0B2D36"/>
      <stop offset="1" stop-color="#08232B"/>
    </linearGradient>
  </defs>
  <rect width="1200" height="720" fill="url(#bg)"/>
  <rect x="110" y="90" width="620" height="540" rx="30" fill="#123C44" stroke="#B9FF9F" stroke-opacity="0.22"/>
  <rect x="150" y="135" width="540" height="40" rx="12" fill="#0D2F37"/>
  <circle cx="176" cy="155" r="8" fill="#B9FF9F" fill-opacity="0.5"/>
  <circle cx="202" cy="155" r="8" fill="#B9FF9F" fill-opacity="0.28"/>
  <circle cx="228" cy="155" r="8" fill="#B9FF9F" fill-opacity="0.2"/>
  <rect x="150" y="208" width="270" height="170" rx="18" fill="#0E313A"/>
  <rect x="440" y="208" width="250" height="78" rx="16" fill="#194850"/>
  <rect x="440" y="300" width="250" height="78" rx="16" fill="#194850"/>
  <rect x="150" y="402" width="540" height="24" rx="12" fill="#B9FF9F" fill-opacity="0.42"/>
  <rect x="150" y="440" width="360" height="16" rx="8" fill="#D5E6E8" fill-opacity="0.35"/>
  <rect x="150" y="470" width="300" height="16" rx="8" fill="#D5E6E8" fill-opacity="0.25"/>
  <rect x="150" y="515" width="190" height="56" rx="28" fill="#B9FF9F" fill-opacity="0.3"/>
  <text x="780" y="300" fill="#E6F2F3" font-family="Arial, sans-serif" font-size="52" font-weight="700">Website</text>
  <text x="780" y="352" fill="#B5C9CC" font-family="Arial, sans-serif" font-size="30">Built to convert traffic into</text>
  <text x="780" y="392" fill="#B5C9CC" font-family="Arial, sans-serif" font-size="30">bookings, orders, and leads</text>
</svg>